<mxfile host="app.diagrams.net" agent="Mozilla/5.0 (Windows NT 10.0; Win64; x64) AppleWebKit/537.36 (KHTML, like Gecko) Chrome/132.0.0.0 Safari/537.36 Edg/132.0.0.0" version="26.0.10">
  <diagram name="Page-1" id="929967ad-93f9-6ef4-fab6-5d389245f69c">
    <mxGraphModel dx="3604.5" dy="868" grid="1" gridSize="10" guides="1" tooltips="1" connect="1" arrows="1" fold="1" page="1" pageScale="1.5" pageWidth="1169" pageHeight="826" background="none" math="0" shadow="0">
      <root>
        <mxCell id="0" style=";html=1;" />
        <mxCell id="1" style=";html=1;" parent="0" />
        <mxCell id="1672d66443f91eb5-23" value="Requirement Système de traitement" style="text;strokeColor=none;fillColor=none;html=1;fontSize=24;fontStyle=1;verticalAlign=middle;align=center;" parent="1" vertex="1">
          <mxGeometry x="150" y="30" width="1510" height="40" as="geometry" />
        </mxCell>
        <mxCell id="8Gsik2gFyO7fR51Xn3zr-1" value="&lt;p style=&quot;margin:0px;margin-top:4px;margin-left:7px;text-align:left;&quot;&gt;&lt;b style=&quot;text-wrap-mode: wrap;&quot;&gt;req&lt;/b&gt;&lt;span style=&quot;text-wrap-mode: wrap;&quot;&gt;&amp;nbsp;[Système Traitement] PremiumGalop&lt;/span&gt;&lt;/p&gt;" style="html=1;shape=mxgraph.sysml.package;overflow=fill;labelX=242.36;strokeWidth=2;align=center;" parent="1" vertex="1">
          <mxGeometry x="-560" y="100" width="2880" height="1360" as="geometry" />
        </mxCell>
        <mxCell id="8Gsik2gFyO7fR51Xn3zr-5" value="" style="fontStyle=1;align=center;verticalAlign=middle;childLayout=stackLayout;horizontal=1;horizontalStack=0;resizeParent=1;resizeParentMax=0;resizeLast=0;marginBottom=0;" parent="1" vertex="1">
          <mxGeometry x="751.5" y="140" width="250" height="126" as="geometry" />
        </mxCell>
        <mxCell id="8Gsik2gFyO7fR51Xn3zr-6" value="&amp;lt;&amp;lt;requirement&amp;gt;&amp;gt;" style="html=1;align=center;spacing=0;verticalAlign=middle;strokeColor=none;fillColor=none;whiteSpace=wrap;spacingTop=3;" parent="8Gsik2gFyO7fR51Xn3zr-5" vertex="1">
          <mxGeometry width="250" height="16" as="geometry" />
        </mxCell>
        <mxCell id="8Gsik2gFyO7fR51Xn3zr-7" value="Le système de traitement" style="html=1;align=center;spacing=0;verticalAlign=middle;strokeColor=none;fillColor=none;whiteSpace=wrap;fontStyle=1" parent="8Gsik2gFyO7fR51Xn3zr-5" vertex="1">
          <mxGeometry y="16" width="250" height="18" as="geometry" />
        </mxCell>
        <mxCell id="8Gsik2gFyO7fR51Xn3zr-8" value="" style="line;strokeWidth=0.25;fillColor=none;align=left;verticalAlign=middle;spacingTop=-1;spacingLeft=3;spacingRight=3;rotatable=0;labelPosition=right;points=[];portConstraint=eastwest;" parent="8Gsik2gFyO7fR51Xn3zr-5" vertex="1">
          <mxGeometry y="34" width="250" height="8" as="geometry" />
        </mxCell>
        <mxCell id="8Gsik2gFyO7fR51Xn3zr-9" value="&lt;span style=&quot;text-align: justify;&quot;&gt;text = &quot;le système de traitement devra recevoir et archiver dans la base de données les mesures du système d&#39;acquisition, traiter ces données et enfin les transmettre à l&#39;IHM&quot;&lt;/span&gt;" style="html=1;align=left;spacing=0;verticalAlign=middle;strokeColor=none;fillColor=none;whiteSpace=wrap;spacingLeft=10;" parent="8Gsik2gFyO7fR51Xn3zr-5" vertex="1">
          <mxGeometry y="42" width="250" height="68" as="geometry" />
        </mxCell>
        <mxCell id="8Gsik2gFyO7fR51Xn3zr-10" value="Id=&quot;2&quot;" style="html=1;align=left;spacing=0;verticalAlign=middle;strokeColor=none;fillColor=none;whiteSpace=wrap;spacingLeft=10;" parent="8Gsik2gFyO7fR51Xn3zr-5" vertex="1">
          <mxGeometry y="110" width="250" height="16" as="geometry" />
        </mxCell>
        <mxCell id="8Gsik2gFyO7fR51Xn3zr-12" value="" style="fontStyle=1;align=center;verticalAlign=middle;childLayout=stackLayout;horizontal=1;horizontalStack=0;resizeParent=1;resizeParentMax=0;resizeLast=0;marginBottom=0;" parent="1" vertex="1">
          <mxGeometry x="1560" y="450" width="250" height="126" as="geometry" />
        </mxCell>
        <mxCell id="8Gsik2gFyO7fR51Xn3zr-13" value="&amp;lt;&amp;lt;requirement&amp;gt;&amp;gt;" style="html=1;align=center;spacing=0;verticalAlign=middle;strokeColor=none;fillColor=none;whiteSpace=wrap;spacingTop=3;" parent="8Gsik2gFyO7fR51Xn3zr-12" vertex="1">
          <mxGeometry width="250" height="16" as="geometry" />
        </mxCell>
        <mxCell id="8Gsik2gFyO7fR51Xn3zr-14" value="Traiter" style="html=1;align=center;spacing=0;verticalAlign=middle;strokeColor=none;fillColor=none;whiteSpace=wrap;fontStyle=1" parent="8Gsik2gFyO7fR51Xn3zr-12" vertex="1">
          <mxGeometry y="16" width="250" height="18" as="geometry" />
        </mxCell>
        <mxCell id="8Gsik2gFyO7fR51Xn3zr-15" value="" style="line;strokeWidth=0.25;fillColor=none;align=left;verticalAlign=middle;spacingTop=-1;spacingLeft=3;spacingRight=3;rotatable=0;labelPosition=right;points=[];portConstraint=eastwest;" parent="8Gsik2gFyO7fR51Xn3zr-12" vertex="1">
          <mxGeometry y="34" width="250" height="8" as="geometry" />
        </mxCell>
        <mxCell id="8Gsik2gFyO7fR51Xn3zr-16" value="&lt;span style=&quot;text-align: justify;&quot;&gt;text = &quot;Le sysT devra pouvoir traiter les données présentes dans la base de données afin d&#39;obtenir des valeurs et/ou visualisations simples.&quot;&lt;/span&gt;" style="html=1;align=left;spacing=0;verticalAlign=middle;strokeColor=none;fillColor=none;whiteSpace=wrap;spacingLeft=10;" parent="8Gsik2gFyO7fR51Xn3zr-12" vertex="1">
          <mxGeometry y="42" width="250" height="68" as="geometry" />
        </mxCell>
        <mxCell id="8Gsik2gFyO7fR51Xn3zr-17" value="id = &quot;2.4&quot;" style="html=1;align=left;spacing=0;verticalAlign=middle;strokeColor=none;fillColor=none;whiteSpace=wrap;spacingLeft=10;" parent="8Gsik2gFyO7fR51Xn3zr-12" vertex="1">
          <mxGeometry y="110" width="250" height="16" as="geometry" />
        </mxCell>
        <mxCell id="8Gsik2gFyO7fR51Xn3zr-24" value="" style="fontStyle=1;align=center;verticalAlign=middle;childLayout=stackLayout;horizontal=1;horizontalStack=0;resizeParent=1;resizeParentMax=0;resizeLast=0;marginBottom=0;" parent="1" vertex="1">
          <mxGeometry x="1200" y="640" width="200" height="106" as="geometry" />
        </mxCell>
        <mxCell id="8Gsik2gFyO7fR51Xn3zr-25" value="&amp;lt;&amp;lt;requirement&amp;gt;&amp;gt;" style="html=1;align=center;spacing=0;verticalAlign=middle;strokeColor=none;fillColor=none;whiteSpace=wrap;spacingTop=3;" parent="8Gsik2gFyO7fR51Xn3zr-24" vertex="1">
          <mxGeometry width="200" height="16" as="geometry" />
        </mxCell>
        <mxCell id="8Gsik2gFyO7fR51Xn3zr-26" value="Hygrométrie" style="html=1;align=center;spacing=0;verticalAlign=middle;strokeColor=none;fillColor=none;whiteSpace=wrap;fontStyle=1" parent="8Gsik2gFyO7fR51Xn3zr-24" vertex="1">
          <mxGeometry y="16" width="200" height="18" as="geometry" />
        </mxCell>
        <mxCell id="8Gsik2gFyO7fR51Xn3zr-27" value="" style="line;strokeWidth=0.25;fillColor=none;align=left;verticalAlign=middle;spacingTop=-1;spacingLeft=3;spacingRight=3;rotatable=0;labelPosition=right;points=[];portConstraint=eastwest;" parent="8Gsik2gFyO7fR51Xn3zr-24" vertex="1">
          <mxGeometry y="34" width="200" height="8" as="geometry" />
        </mxCell>
        <mxCell id="8Gsik2gFyO7fR51Xn3zr-28" value="&lt;span style=&quot;text-align: justify;&quot;&gt;text = &quot;la quantité d&#39;eau dans l&#39;air devra être exprimée sous la forme d&#39;un pourcentage.&quot;&lt;/span&gt;" style="html=1;align=left;spacing=0;verticalAlign=middle;strokeColor=none;fillColor=none;whiteSpace=wrap;spacingLeft=10;" parent="8Gsik2gFyO7fR51Xn3zr-24" vertex="1">
          <mxGeometry y="42" width="200" height="48" as="geometry" />
        </mxCell>
        <mxCell id="8Gsik2gFyO7fR51Xn3zr-29" value="id = &quot;2.2.1&quot;" style="html=1;align=left;spacing=0;verticalAlign=middle;strokeColor=none;fillColor=none;whiteSpace=wrap;spacingLeft=10;" parent="8Gsik2gFyO7fR51Xn3zr-24" vertex="1">
          <mxGeometry y="90" width="200" height="16" as="geometry" />
        </mxCell>
        <mxCell id="8Gsik2gFyO7fR51Xn3zr-31" value="" style="fontStyle=1;align=center;verticalAlign=middle;childLayout=stackLayout;horizontal=1;horizontalStack=0;resizeParent=1;resizeParentMax=0;resizeLast=0;marginBottom=0;" parent="1" vertex="1">
          <mxGeometry x="1450" y="640" width="200" height="136" as="geometry" />
        </mxCell>
        <mxCell id="8Gsik2gFyO7fR51Xn3zr-32" value="&amp;lt;&amp;lt;requirement&amp;gt;&amp;gt;" style="html=1;align=center;spacing=0;verticalAlign=middle;strokeColor=none;fillColor=none;whiteSpace=wrap;spacingTop=3;" parent="8Gsik2gFyO7fR51Xn3zr-31" vertex="1">
          <mxGeometry width="200" height="16" as="geometry" />
        </mxCell>
        <mxCell id="8Gsik2gFyO7fR51Xn3zr-33" value="Qualification du terrain" style="html=1;align=center;spacing=0;verticalAlign=middle;strokeColor=none;fillColor=none;whiteSpace=wrap;fontStyle=1" parent="8Gsik2gFyO7fR51Xn3zr-31" vertex="1">
          <mxGeometry y="16" width="200" height="18" as="geometry" />
        </mxCell>
        <mxCell id="8Gsik2gFyO7fR51Xn3zr-34" value="" style="line;strokeWidth=0.25;fillColor=none;align=left;verticalAlign=middle;spacingTop=-1;spacingLeft=3;spacingRight=3;rotatable=0;labelPosition=right;points=[];portConstraint=eastwest;" parent="8Gsik2gFyO7fR51Xn3zr-31" vertex="1">
          <mxGeometry y="34" width="200" height="8" as="geometry" />
        </mxCell>
        <mxCell id="8Gsik2gFyO7fR51Xn3zr-35" value="&lt;span style=&quot;color: light-dark(rgb(0, 0, 0), rgb(255, 255, 255)); text-align: justify; background-color: transparent;&quot;&gt;text = &quot;la qualification du terrain devra être f&lt;/span&gt;&lt;span style=&quot;color: light-dark(rgb(0, 0, 0), rgb(255, 255, 255)); text-align: justify; background-color: transparent;&quot;&gt;aite selon l&#39;échelle française de pénétrométrie et sera accompagnée de la moyenne des mesures.&quot;&lt;/span&gt;" style="html=1;align=left;spacing=0;verticalAlign=middle;strokeColor=none;fillColor=none;whiteSpace=wrap;spacingLeft=10;" parent="8Gsik2gFyO7fR51Xn3zr-31" vertex="1">
          <mxGeometry y="42" width="200" height="78" as="geometry" />
        </mxCell>
        <mxCell id="8Gsik2gFyO7fR51Xn3zr-36" value="id = &quot;2.2.2&quot;" style="html=1;align=left;spacing=0;verticalAlign=middle;strokeColor=none;fillColor=none;whiteSpace=wrap;spacingLeft=10;" parent="8Gsik2gFyO7fR51Xn3zr-31" vertex="1">
          <mxGeometry y="120" width="200" height="16" as="geometry" />
        </mxCell>
        <mxCell id="8Gsik2gFyO7fR51Xn3zr-38" value="" style="fontStyle=1;align=center;verticalAlign=middle;childLayout=stackLayout;horizontal=1;horizontalStack=0;resizeParent=1;resizeParentMax=0;resizeLast=0;marginBottom=0;" parent="1" vertex="1">
          <mxGeometry x="1700" y="640" width="200" height="132" as="geometry" />
        </mxCell>
        <mxCell id="8Gsik2gFyO7fR51Xn3zr-39" value="&amp;lt;&amp;lt;requirement&amp;gt;&amp;gt;" style="html=1;align=center;spacing=0;verticalAlign=middle;strokeColor=none;fillColor=none;whiteSpace=wrap;spacingTop=3;" parent="8Gsik2gFyO7fR51Xn3zr-38" vertex="1">
          <mxGeometry width="200" height="16" as="geometry" />
        </mxCell>
        <mxCell id="8Gsik2gFyO7fR51Xn3zr-40" value="Parcours populaires" style="html=1;align=center;spacing=0;verticalAlign=middle;strokeColor=none;fillColor=none;whiteSpace=wrap;fontStyle=1" parent="8Gsik2gFyO7fR51Xn3zr-38" vertex="1">
          <mxGeometry y="16" width="200" height="18" as="geometry" />
        </mxCell>
        <mxCell id="8Gsik2gFyO7fR51Xn3zr-41" value="" style="line;strokeWidth=0.25;fillColor=none;align=left;verticalAlign=middle;spacingTop=-1;spacingLeft=3;spacingRight=3;rotatable=0;labelPosition=right;points=[];portConstraint=eastwest;" parent="8Gsik2gFyO7fR51Xn3zr-38" vertex="1">
          <mxGeometry y="34" width="200" height="8" as="geometry" />
        </mxCell>
        <mxCell id="8Gsik2gFyO7fR51Xn3zr-42" value="&lt;span style=&quot;text-align: justify;&quot;&gt;text = &quot;une visualisation graphique permettra de connaitre les pistes les plus empruntés &#39;&quot;&lt;/span&gt;" style="html=1;align=left;spacing=0;verticalAlign=middle;strokeColor=none;fillColor=none;whiteSpace=wrap;spacingLeft=10;" parent="8Gsik2gFyO7fR51Xn3zr-38" vertex="1">
          <mxGeometry y="42" width="200" height="48" as="geometry" />
        </mxCell>
        <mxCell id="8Gsik2gFyO7fR51Xn3zr-43" value="id = &quot;2.2.3&quot;" style="html=1;align=left;spacing=0;verticalAlign=middle;strokeColor=none;fillColor=none;whiteSpace=wrap;spacingLeft=10;" parent="8Gsik2gFyO7fR51Xn3zr-38" vertex="1">
          <mxGeometry y="90" width="200" height="16" as="geometry" />
        </mxCell>
        <mxCell id="8Gsik2gFyO7fR51Xn3zr-44" value="" style="html=1;align=center;spacing=0;verticalAlign=middle;strokeColor=none;fillColor=none;whiteSpace=wrap;" parent="8Gsik2gFyO7fR51Xn3zr-38" vertex="1">
          <mxGeometry y="106" width="200" height="26" as="geometry" />
        </mxCell>
        <mxCell id="8Gsik2gFyO7fR51Xn3zr-46" value="" style="fontStyle=1;align=center;verticalAlign=middle;childLayout=stackLayout;horizontal=1;horizontalStack=0;resizeParent=1;resizeParentMax=0;resizeLast=0;marginBottom=0;" parent="1" vertex="1">
          <mxGeometry x="2060" y="830" width="200" height="132" as="geometry" />
        </mxCell>
        <mxCell id="8Gsik2gFyO7fR51Xn3zr-47" value="&amp;lt;&amp;lt;requirement&amp;gt;&amp;gt;" style="html=1;align=center;spacing=0;verticalAlign=middle;strokeColor=none;fillColor=none;whiteSpace=wrap;spacingTop=3;" parent="8Gsik2gFyO7fR51Xn3zr-46" vertex="1">
          <mxGeometry width="200" height="16" as="geometry" />
        </mxCell>
        <mxCell id="8Gsik2gFyO7fR51Xn3zr-48" value="Humidité du sol" style="html=1;align=center;spacing=0;verticalAlign=middle;strokeColor=none;fillColor=none;whiteSpace=wrap;fontStyle=1" parent="8Gsik2gFyO7fR51Xn3zr-46" vertex="1">
          <mxGeometry y="16" width="200" height="18" as="geometry" />
        </mxCell>
        <mxCell id="8Gsik2gFyO7fR51Xn3zr-49" value="" style="line;strokeWidth=0.25;fillColor=none;align=left;verticalAlign=middle;spacingTop=-1;spacingLeft=3;spacingRight=3;rotatable=0;labelPosition=right;points=[];portConstraint=eastwest;" parent="8Gsik2gFyO7fR51Xn3zr-46" vertex="1">
          <mxGeometry y="34" width="200" height="8" as="geometry" />
        </mxCell>
        <mxCell id="8Gsik2gFyO7fR51Xn3zr-50" value="&lt;span style=&quot;text-align: justify;&quot;&gt;text = &quot;l&#39;humidité du sol devra être exprimée sous la forme d&#39;un pourcentage&quot;&lt;/span&gt;" style="html=1;align=left;spacing=0;verticalAlign=middle;strokeColor=none;fillColor=none;whiteSpace=wrap;spacingLeft=10;" parent="8Gsik2gFyO7fR51Xn3zr-46" vertex="1">
          <mxGeometry y="42" width="200" height="48" as="geometry" />
        </mxCell>
        <mxCell id="8Gsik2gFyO7fR51Xn3zr-51" value="id = &quot;2.2.9&quot;" style="html=1;align=left;spacing=0;verticalAlign=middle;strokeColor=none;fillColor=none;whiteSpace=wrap;spacingLeft=10;" parent="8Gsik2gFyO7fR51Xn3zr-46" vertex="1">
          <mxGeometry y="90" width="200" height="16" as="geometry" />
        </mxCell>
        <mxCell id="8Gsik2gFyO7fR51Xn3zr-52" value="" style="html=1;align=center;spacing=0;verticalAlign=middle;strokeColor=none;fillColor=none;whiteSpace=wrap;" parent="8Gsik2gFyO7fR51Xn3zr-46" vertex="1">
          <mxGeometry y="106" width="200" height="26" as="geometry" />
        </mxCell>
        <mxCell id="8Gsik2gFyO7fR51Xn3zr-53" value="" style="fontStyle=1;align=center;verticalAlign=middle;childLayout=stackLayout;horizontal=1;horizontalStack=0;resizeParent=1;resizeParentMax=0;resizeLast=0;marginBottom=0;" parent="1" vertex="1">
          <mxGeometry x="1110" y="830" width="200" height="132" as="geometry" />
        </mxCell>
        <mxCell id="8Gsik2gFyO7fR51Xn3zr-54" value="&amp;lt;&amp;lt;requirement&amp;gt;&amp;gt;" style="html=1;align=center;spacing=0;verticalAlign=middle;strokeColor=none;fillColor=none;whiteSpace=wrap;spacingTop=3;" parent="8Gsik2gFyO7fR51Xn3zr-53" vertex="1">
          <mxGeometry width="200" height="16" as="geometry" />
        </mxCell>
        <mxCell id="8Gsik2gFyO7fR51Xn3zr-55" value="Etat du terrain" style="html=1;align=center;spacing=0;verticalAlign=middle;strokeColor=none;fillColor=none;whiteSpace=wrap;fontStyle=1" parent="8Gsik2gFyO7fR51Xn3zr-53" vertex="1">
          <mxGeometry y="16" width="200" height="18" as="geometry" />
        </mxCell>
        <mxCell id="8Gsik2gFyO7fR51Xn3zr-56" value="" style="line;strokeWidth=0.25;fillColor=none;align=left;verticalAlign=middle;spacingTop=-1;spacingLeft=3;spacingRight=3;rotatable=0;labelPosition=right;points=[];portConstraint=eastwest;" parent="8Gsik2gFyO7fR51Xn3zr-53" vertex="1">
          <mxGeometry y="34" width="200" height="8" as="geometry" />
        </mxCell>
        <mxCell id="8Gsik2gFyO7fR51Xn3zr-57" value="&lt;span style=&quot;text-align: justify;&quot;&gt;text = &quot;L&#39;état du terrain devra être visualisable sous la forme d&#39;une carte représentant la piste.&quot;&lt;/span&gt;" style="html=1;align=left;spacing=0;verticalAlign=middle;strokeColor=none;fillColor=none;whiteSpace=wrap;spacingLeft=10;" parent="8Gsik2gFyO7fR51Xn3zr-53" vertex="1">
          <mxGeometry y="42" width="200" height="48" as="geometry" />
        </mxCell>
        <mxCell id="8Gsik2gFyO7fR51Xn3zr-58" value="id = &quot;2.2.8&quot;" style="html=1;align=left;spacing=0;verticalAlign=middle;strokeColor=none;fillColor=none;whiteSpace=wrap;spacingLeft=10;" parent="8Gsik2gFyO7fR51Xn3zr-53" vertex="1">
          <mxGeometry y="90" width="200" height="16" as="geometry" />
        </mxCell>
        <mxCell id="8Gsik2gFyO7fR51Xn3zr-59" value="" style="html=1;align=center;spacing=0;verticalAlign=middle;strokeColor=none;fillColor=none;whiteSpace=wrap;" parent="8Gsik2gFyO7fR51Xn3zr-53" vertex="1">
          <mxGeometry y="106" width="200" height="26" as="geometry" />
        </mxCell>
        <mxCell id="8Gsik2gFyO7fR51Xn3zr-60" value="" style="fontStyle=1;align=center;verticalAlign=middle;childLayout=stackLayout;horizontal=1;horizontalStack=0;resizeParent=1;resizeParentMax=0;resizeLast=0;marginBottom=0;" parent="1" vertex="1">
          <mxGeometry x="1585" y="830" width="200" height="132" as="geometry" />
        </mxCell>
        <mxCell id="8Gsik2gFyO7fR51Xn3zr-61" value="&amp;lt;&amp;lt;requirement&amp;gt;&amp;gt;" style="html=1;align=center;spacing=0;verticalAlign=middle;strokeColor=none;fillColor=none;whiteSpace=wrap;spacingTop=3;" parent="8Gsik2gFyO7fR51Xn3zr-60" vertex="1">
          <mxGeometry width="200" height="16" as="geometry" />
        </mxCell>
        <mxCell id="8Gsik2gFyO7fR51Xn3zr-62" value="Direction du vent" style="html=1;align=center;spacing=0;verticalAlign=middle;strokeColor=none;fillColor=none;whiteSpace=wrap;fontStyle=1" parent="8Gsik2gFyO7fR51Xn3zr-60" vertex="1">
          <mxGeometry y="16" width="200" height="18" as="geometry" />
        </mxCell>
        <mxCell id="8Gsik2gFyO7fR51Xn3zr-63" value="" style="line;strokeWidth=0.25;fillColor=none;align=left;verticalAlign=middle;spacingTop=-1;spacingLeft=3;spacingRight=3;rotatable=0;labelPosition=right;points=[];portConstraint=eastwest;" parent="8Gsik2gFyO7fR51Xn3zr-60" vertex="1">
          <mxGeometry y="34" width="200" height="8" as="geometry" />
        </mxCell>
        <mxCell id="8Gsik2gFyO7fR51Xn3zr-64" value="&lt;span style=&quot;text-align: justify;&quot;&gt;text = &quot;La direction du vent devra être disponible sous la forme Nord/sud/est/ouest&quot;&lt;/span&gt;" style="html=1;align=left;spacing=0;verticalAlign=middle;strokeColor=none;fillColor=none;whiteSpace=wrap;spacingLeft=10;" parent="8Gsik2gFyO7fR51Xn3zr-60" vertex="1">
          <mxGeometry y="42" width="200" height="48" as="geometry" />
        </mxCell>
        <mxCell id="8Gsik2gFyO7fR51Xn3zr-65" value="id = &quot;2.2.7&quot;" style="html=1;align=left;spacing=0;verticalAlign=middle;strokeColor=none;fillColor=none;whiteSpace=wrap;spacingLeft=10;" parent="8Gsik2gFyO7fR51Xn3zr-60" vertex="1">
          <mxGeometry y="90" width="200" height="16" as="geometry" />
        </mxCell>
        <mxCell id="8Gsik2gFyO7fR51Xn3zr-66" value="" style="html=1;align=center;spacing=0;verticalAlign=middle;strokeColor=none;fillColor=none;whiteSpace=wrap;" parent="8Gsik2gFyO7fR51Xn3zr-60" vertex="1">
          <mxGeometry y="106" width="200" height="26" as="geometry" />
        </mxCell>
        <mxCell id="8Gsik2gFyO7fR51Xn3zr-67" value="" style="fontStyle=1;align=center;verticalAlign=middle;childLayout=stackLayout;horizontal=1;horizontalStack=0;resizeParent=1;resizeParentMax=0;resizeLast=0;marginBottom=0;" parent="1" vertex="1">
          <mxGeometry x="1950" y="640" width="200" height="132" as="geometry" />
        </mxCell>
        <mxCell id="8Gsik2gFyO7fR51Xn3zr-68" value="&amp;lt;&amp;lt;requirement&amp;gt;&amp;gt;" style="html=1;align=center;spacing=0;verticalAlign=middle;strokeColor=none;fillColor=none;whiteSpace=wrap;spacingTop=3;" parent="8Gsik2gFyO7fR51Xn3zr-67" vertex="1">
          <mxGeometry width="200" height="16" as="geometry" />
        </mxCell>
        <mxCell id="8Gsik2gFyO7fR51Xn3zr-69" value="Dernier arrosage" style="html=1;align=center;spacing=0;verticalAlign=middle;strokeColor=none;fillColor=none;whiteSpace=wrap;fontStyle=1" parent="8Gsik2gFyO7fR51Xn3zr-67" vertex="1">
          <mxGeometry y="16" width="200" height="18" as="geometry" />
        </mxCell>
        <mxCell id="8Gsik2gFyO7fR51Xn3zr-70" value="" style="line;strokeWidth=0.25;fillColor=none;align=left;verticalAlign=middle;spacingTop=-1;spacingLeft=3;spacingRight=3;rotatable=0;labelPosition=right;points=[];portConstraint=eastwest;" parent="8Gsik2gFyO7fR51Xn3zr-67" vertex="1">
          <mxGeometry y="34" width="200" height="8" as="geometry" />
        </mxCell>
        <mxCell id="8Gsik2gFyO7fR51Xn3zr-71" value="&lt;span style=&quot;text-align: justify;&quot;&gt;text = &quot;le dernier arrosage de la piste ligne droite et de la circulaire devront être exprimées en mois&quot;&lt;/span&gt;" style="html=1;align=left;spacing=0;verticalAlign=middle;strokeColor=none;fillColor=none;whiteSpace=wrap;spacingLeft=10;" parent="8Gsik2gFyO7fR51Xn3zr-67" vertex="1">
          <mxGeometry y="42" width="200" height="48" as="geometry" />
        </mxCell>
        <mxCell id="8Gsik2gFyO7fR51Xn3zr-72" value="id = &quot;2.2.4&quot;" style="html=1;align=left;spacing=0;verticalAlign=middle;strokeColor=none;fillColor=none;whiteSpace=wrap;spacingLeft=10;" parent="8Gsik2gFyO7fR51Xn3zr-67" vertex="1">
          <mxGeometry y="90" width="200" height="16" as="geometry" />
        </mxCell>
        <mxCell id="8Gsik2gFyO7fR51Xn3zr-73" value="" style="html=1;align=center;spacing=0;verticalAlign=middle;strokeColor=none;fillColor=none;whiteSpace=wrap;" parent="8Gsik2gFyO7fR51Xn3zr-67" vertex="1">
          <mxGeometry y="106" width="200" height="26" as="geometry" />
        </mxCell>
        <mxCell id="8Gsik2gFyO7fR51Xn3zr-74" value="" style="fontStyle=1;align=center;verticalAlign=middle;childLayout=stackLayout;horizontal=1;horizontalStack=0;resizeParent=1;resizeParentMax=0;resizeLast=0;marginBottom=0;" parent="1" vertex="1">
          <mxGeometry x="1350" y="830" width="200" height="130" as="geometry" />
        </mxCell>
        <mxCell id="8Gsik2gFyO7fR51Xn3zr-75" value="&amp;lt;&amp;lt;requirement&amp;gt;&amp;gt;" style="html=1;align=center;spacing=0;verticalAlign=middle;strokeColor=none;fillColor=none;whiteSpace=wrap;spacingTop=3;" parent="8Gsik2gFyO7fR51Xn3zr-74" vertex="1">
          <mxGeometry width="200" height="16" as="geometry" />
        </mxCell>
        <mxCell id="8Gsik2gFyO7fR51Xn3zr-76" value="Evapotranspiration" style="html=1;align=center;spacing=0;verticalAlign=middle;strokeColor=none;fillColor=none;whiteSpace=wrap;fontStyle=1" parent="8Gsik2gFyO7fR51Xn3zr-74" vertex="1">
          <mxGeometry y="16" width="200" height="18" as="geometry" />
        </mxCell>
        <mxCell id="8Gsik2gFyO7fR51Xn3zr-77" value="" style="line;strokeWidth=0.25;fillColor=none;align=left;verticalAlign=middle;spacingTop=-1;spacingLeft=3;spacingRight=3;rotatable=0;labelPosition=right;points=[];portConstraint=eastwest;" parent="8Gsik2gFyO7fR51Xn3zr-74" vertex="1">
          <mxGeometry y="34" width="200" height="8" as="geometry" />
        </mxCell>
        <mxCell id="8Gsik2gFyO7fR51Xn3zr-78" value="&lt;span style=&quot;text-align: justify;&quot;&gt;text = &quot;l&#39;évaporation de l&#39;humidité du sol devra être disponible en &quot;mm/jour&quot;?&quot;&lt;/span&gt;" style="html=1;align=left;spacing=0;verticalAlign=middle;strokeColor=none;fillColor=none;whiteSpace=wrap;spacingLeft=10;" parent="8Gsik2gFyO7fR51Xn3zr-74" vertex="1">
          <mxGeometry y="42" width="200" height="38" as="geometry" />
        </mxCell>
        <mxCell id="8Gsik2gFyO7fR51Xn3zr-79" value="id = &quot;2.2.5&quot;" style="html=1;align=left;spacing=0;verticalAlign=middle;strokeColor=none;fillColor=none;whiteSpace=wrap;spacingLeft=10;" parent="8Gsik2gFyO7fR51Xn3zr-74" vertex="1">
          <mxGeometry y="80" width="200" height="30" as="geometry" />
        </mxCell>
        <mxCell id="8Gsik2gFyO7fR51Xn3zr-80" value="" style="html=1;align=center;spacing=0;verticalAlign=middle;strokeColor=none;fillColor=none;whiteSpace=wrap;" parent="8Gsik2gFyO7fR51Xn3zr-74" vertex="1">
          <mxGeometry y="110" width="200" height="20" as="geometry" />
        </mxCell>
        <mxCell id="8Gsik2gFyO7fR51Xn3zr-81" value="" style="fontStyle=1;align=center;verticalAlign=middle;childLayout=stackLayout;horizontal=1;horizontalStack=0;resizeParent=1;resizeParentMax=0;resizeLast=0;marginBottom=0;" parent="1" vertex="1">
          <mxGeometry x="1823" y="830" width="200" height="132" as="geometry" />
        </mxCell>
        <mxCell id="8Gsik2gFyO7fR51Xn3zr-82" value="&amp;lt;&amp;lt;requirement&amp;gt;&amp;gt;" style="html=1;align=center;spacing=0;verticalAlign=middle;strokeColor=none;fillColor=none;whiteSpace=wrap;spacingTop=3;" parent="8Gsik2gFyO7fR51Xn3zr-81" vertex="1">
          <mxGeometry width="200" height="16" as="geometry" />
        </mxCell>
        <mxCell id="8Gsik2gFyO7fR51Xn3zr-83" value="Pluviométrie" style="html=1;align=center;spacing=0;verticalAlign=middle;strokeColor=none;fillColor=none;whiteSpace=wrap;fontStyle=1" parent="8Gsik2gFyO7fR51Xn3zr-81" vertex="1">
          <mxGeometry y="16" width="200" height="18" as="geometry" />
        </mxCell>
        <mxCell id="8Gsik2gFyO7fR51Xn3zr-84" value="" style="line;strokeWidth=0.25;fillColor=none;align=left;verticalAlign=middle;spacingTop=-1;spacingLeft=3;spacingRight=3;rotatable=0;labelPosition=right;points=[];portConstraint=eastwest;" parent="8Gsik2gFyO7fR51Xn3zr-81" vertex="1">
          <mxGeometry y="34" width="200" height="8" as="geometry" />
        </mxCell>
        <mxCell id="8Gsik2gFyO7fR51Xn3zr-85" value="&lt;span style=&quot;text-align: justify;&quot;&gt;text = &quot;La pluviométrie devra être visualisable sous les dernières 24h et sous les 7 derniers jours&quot;&lt;/span&gt;" style="html=1;align=left;spacing=0;verticalAlign=middle;strokeColor=none;fillColor=none;whiteSpace=wrap;spacingLeft=10;" parent="8Gsik2gFyO7fR51Xn3zr-81" vertex="1">
          <mxGeometry y="42" width="200" height="48" as="geometry" />
        </mxCell>
        <mxCell id="8Gsik2gFyO7fR51Xn3zr-86" value="id = &quot;2.2.6&quot;" style="html=1;align=left;spacing=0;verticalAlign=middle;strokeColor=none;fillColor=none;whiteSpace=wrap;spacingLeft=10;" parent="8Gsik2gFyO7fR51Xn3zr-81" vertex="1">
          <mxGeometry y="90" width="200" height="16" as="geometry" />
        </mxCell>
        <mxCell id="8Gsik2gFyO7fR51Xn3zr-87" value="" style="html=1;align=center;spacing=0;verticalAlign=middle;strokeColor=none;fillColor=none;whiteSpace=wrap;" parent="8Gsik2gFyO7fR51Xn3zr-81" vertex="1">
          <mxGeometry y="106" width="200" height="26" as="geometry" />
        </mxCell>
        <mxCell id="8Gsik2gFyO7fR51Xn3zr-90" value="" style="fontStyle=1;align=center;verticalAlign=middle;childLayout=stackLayout;horizontal=1;horizontalStack=0;resizeParent=1;resizeParentMax=0;resizeLast=0;marginBottom=0;" parent="1" vertex="1">
          <mxGeometry x="-430" y="450" width="200" height="162" as="geometry" />
        </mxCell>
        <mxCell id="8Gsik2gFyO7fR51Xn3zr-91" value="&amp;lt;&amp;lt;requirement&amp;gt;&amp;gt;" style="html=1;align=center;spacing=0;verticalAlign=middle;strokeColor=none;fillColor=none;whiteSpace=wrap;spacingTop=3;" parent="8Gsik2gFyO7fR51Xn3zr-90" vertex="1">
          <mxGeometry width="200" height="16" as="geometry" />
        </mxCell>
        <mxCell id="8Gsik2gFyO7fR51Xn3zr-92" value="archiver" style="html=1;align=center;spacing=0;verticalAlign=middle;strokeColor=none;fillColor=none;whiteSpace=wrap;fontStyle=1" parent="8Gsik2gFyO7fR51Xn3zr-90" vertex="1">
          <mxGeometry y="16" width="200" height="18" as="geometry" />
        </mxCell>
        <mxCell id="8Gsik2gFyO7fR51Xn3zr-93" value="" style="line;strokeWidth=0.25;fillColor=none;align=left;verticalAlign=middle;spacingTop=-1;spacingLeft=3;spacingRight=3;rotatable=0;labelPosition=right;points=[];portConstraint=eastwest;" parent="8Gsik2gFyO7fR51Xn3zr-90" vertex="1">
          <mxGeometry y="34" width="200" height="8" as="geometry" />
        </mxCell>
        <mxCell id="8Gsik2gFyO7fR51Xn3zr-94" value="&lt;span style=&quot;text-align: justify;&quot;&gt;text = &quot;Le SysT devra être en mesure de modifier, supprimer et de récupérer les informations contenues dans la base de donnée.&quot;&lt;/span&gt;" style="html=1;align=left;spacing=0;verticalAlign=middle;strokeColor=none;fillColor=none;whiteSpace=wrap;spacingLeft=10;" parent="8Gsik2gFyO7fR51Xn3zr-90" vertex="1">
          <mxGeometry y="42" width="200" height="78" as="geometry" />
        </mxCell>
        <mxCell id="8Gsik2gFyO7fR51Xn3zr-95" value="Id=&quot;2.1&quot;" style="html=1;align=left;spacing=0;verticalAlign=middle;strokeColor=none;fillColor=none;whiteSpace=wrap;spacingLeft=10;" parent="8Gsik2gFyO7fR51Xn3zr-90" vertex="1">
          <mxGeometry y="120" width="200" height="16" as="geometry" />
        </mxCell>
        <mxCell id="8Gsik2gFyO7fR51Xn3zr-96" value="" style="html=1;align=center;spacing=0;verticalAlign=middle;strokeColor=none;fillColor=none;whiteSpace=wrap;" parent="8Gsik2gFyO7fR51Xn3zr-90" vertex="1">
          <mxGeometry y="136" width="200" height="26" as="geometry" />
        </mxCell>
        <mxCell id="8Gsik2gFyO7fR51Xn3zr-97" value="" style="fontStyle=1;align=center;verticalAlign=middle;childLayout=stackLayout;horizontal=1;horizontalStack=0;resizeParent=1;resizeParentMax=0;resizeLast=0;marginBottom=0;" parent="1" vertex="1">
          <mxGeometry x="776.5" y="450" width="200" height="142" as="geometry" />
        </mxCell>
        <mxCell id="8Gsik2gFyO7fR51Xn3zr-98" value="&amp;lt;&amp;lt;requirement&amp;gt;&amp;gt;" style="html=1;align=center;spacing=0;verticalAlign=middle;strokeColor=none;fillColor=none;whiteSpace=wrap;spacingTop=3;" parent="8Gsik2gFyO7fR51Xn3zr-97" vertex="1">
          <mxGeometry width="200" height="16" as="geometry" />
        </mxCell>
        <mxCell id="8Gsik2gFyO7fR51Xn3zr-99" value="Transmettre" style="html=1;align=center;spacing=0;verticalAlign=middle;strokeColor=none;fillColor=none;whiteSpace=wrap;fontStyle=1" parent="8Gsik2gFyO7fR51Xn3zr-97" vertex="1">
          <mxGeometry y="16" width="200" height="18" as="geometry" />
        </mxCell>
        <mxCell id="8Gsik2gFyO7fR51Xn3zr-100" value="" style="line;strokeWidth=0.25;fillColor=none;align=left;verticalAlign=middle;spacingTop=-1;spacingLeft=3;spacingRight=3;rotatable=0;labelPosition=right;points=[];portConstraint=eastwest;" parent="8Gsik2gFyO7fR51Xn3zr-97" vertex="1">
          <mxGeometry y="34" width="200" height="8" as="geometry" />
        </mxCell>
        <mxCell id="8Gsik2gFyO7fR51Xn3zr-101" value="text = &quot;Le SysT devra pouvoir mettre les données voulues à disposition de l&#39;IHM&quot;" style="html=1;align=left;spacing=0;verticalAlign=middle;strokeColor=none;fillColor=none;whiteSpace=wrap;spacingLeft=10;" parent="8Gsik2gFyO7fR51Xn3zr-97" vertex="1">
          <mxGeometry y="42" width="200" height="58" as="geometry" />
        </mxCell>
        <mxCell id="8Gsik2gFyO7fR51Xn3zr-102" value="Id=&quot;2.3&quot;" style="html=1;align=left;spacing=0;verticalAlign=middle;strokeColor=none;fillColor=none;whiteSpace=wrap;spacingLeft=10;" parent="8Gsik2gFyO7fR51Xn3zr-97" vertex="1">
          <mxGeometry y="100" width="200" height="16" as="geometry" />
        </mxCell>
        <mxCell id="8Gsik2gFyO7fR51Xn3zr-103" value="" style="html=1;align=center;spacing=0;verticalAlign=middle;strokeColor=none;fillColor=none;whiteSpace=wrap;" parent="8Gsik2gFyO7fR51Xn3zr-97" vertex="1">
          <mxGeometry y="116" width="200" height="26" as="geometry" />
        </mxCell>
        <mxCell id="8Gsik2gFyO7fR51Xn3zr-104" value="" style="fontStyle=1;align=center;verticalAlign=middle;childLayout=stackLayout;horizontal=1;horizontalStack=0;resizeParent=1;resizeParentMax=0;resizeLast=0;marginBottom=0;" parent="1" vertex="1">
          <mxGeometry x="230" y="450" width="200" height="142" as="geometry" />
        </mxCell>
        <mxCell id="8Gsik2gFyO7fR51Xn3zr-105" value="&amp;lt;&amp;lt;requirement&amp;gt;&amp;gt;" style="html=1;align=center;spacing=0;verticalAlign=middle;strokeColor=none;fillColor=none;whiteSpace=wrap;spacingTop=3;" parent="8Gsik2gFyO7fR51Xn3zr-104" vertex="1">
          <mxGeometry width="200" height="16" as="geometry" />
        </mxCell>
        <mxCell id="8Gsik2gFyO7fR51Xn3zr-106" value="Recevoir" style="html=1;align=center;spacing=0;verticalAlign=middle;strokeColor=none;fillColor=none;whiteSpace=wrap;fontStyle=1" parent="8Gsik2gFyO7fR51Xn3zr-104" vertex="1">
          <mxGeometry y="16" width="200" height="18" as="geometry" />
        </mxCell>
        <mxCell id="8Gsik2gFyO7fR51Xn3zr-107" value="" style="line;strokeWidth=0.25;fillColor=none;align=left;verticalAlign=middle;spacingTop=-1;spacingLeft=3;spacingRight=3;rotatable=0;labelPosition=right;points=[];portConstraint=eastwest;" parent="8Gsik2gFyO7fR51Xn3zr-104" vertex="1">
          <mxGeometry y="34" width="200" height="8" as="geometry" />
        </mxCell>
        <mxCell id="8Gsik2gFyO7fR51Xn3zr-108" value="&lt;span style=&quot;text-align: justify;&quot;&gt;text = &quot;Le SysT devra être en mesure de recevoir les données émanant du système d&#39;aquisition&quot;&lt;/span&gt;" style="html=1;align=left;spacing=0;verticalAlign=middle;strokeColor=none;fillColor=none;whiteSpace=wrap;spacingLeft=10;" parent="8Gsik2gFyO7fR51Xn3zr-104" vertex="1">
          <mxGeometry y="42" width="200" height="58" as="geometry" />
        </mxCell>
        <mxCell id="8Gsik2gFyO7fR51Xn3zr-109" value="Id=&quot;2.2&quot;" style="html=1;align=left;spacing=0;verticalAlign=middle;strokeColor=none;fillColor=none;whiteSpace=wrap;spacingLeft=10;" parent="8Gsik2gFyO7fR51Xn3zr-104" vertex="1">
          <mxGeometry y="100" width="200" height="16" as="geometry" />
        </mxCell>
        <mxCell id="8Gsik2gFyO7fR51Xn3zr-110" value="" style="html=1;align=center;spacing=0;verticalAlign=middle;strokeColor=none;fillColor=none;whiteSpace=wrap;" parent="8Gsik2gFyO7fR51Xn3zr-104" vertex="1">
          <mxGeometry y="116" width="200" height="26" as="geometry" />
        </mxCell>
        <mxCell id="7C7tb2xBEg-E1_7drB_p-3" value="" style="fontStyle=1;align=center;verticalAlign=middle;childLayout=stackLayout;horizontal=1;horizontalStack=0;resizeParent=1;resizeParentMax=0;resizeLast=0;marginBottom=0;" parent="1" vertex="1">
          <mxGeometry x="-520" y="640" width="200" height="132" as="geometry" />
        </mxCell>
        <mxCell id="7C7tb2xBEg-E1_7drB_p-4" value="&amp;lt;&amp;lt;requirement&amp;gt;&amp;gt;" style="html=1;align=center;spacing=0;verticalAlign=middle;strokeColor=none;fillColor=none;whiteSpace=wrap;spacingTop=3;" parent="7C7tb2xBEg-E1_7drB_p-3" vertex="1">
          <mxGeometry width="200" height="16" as="geometry" />
        </mxCell>
        <mxCell id="7C7tb2xBEg-E1_7drB_p-5" value="Données Brutes" style="html=1;align=center;spacing=0;verticalAlign=middle;strokeColor=none;fillColor=none;whiteSpace=wrap;fontStyle=1" parent="7C7tb2xBEg-E1_7drB_p-3" vertex="1">
          <mxGeometry y="16" width="200" height="18" as="geometry" />
        </mxCell>
        <mxCell id="7C7tb2xBEg-E1_7drB_p-6" value="" style="line;strokeWidth=0.25;fillColor=none;align=left;verticalAlign=middle;spacingTop=-1;spacingLeft=3;spacingRight=3;rotatable=0;labelPosition=right;points=[];portConstraint=eastwest;" parent="7C7tb2xBEg-E1_7drB_p-3" vertex="1">
          <mxGeometry y="34" width="200" height="8" as="geometry" />
        </mxCell>
        <mxCell id="7C7tb2xBEg-E1_7drB_p-7" value="text=&quot;Les Données Brutes devront être conservées selon les critères du cahier des charges.&quot;" style="html=1;align=left;spacing=0;verticalAlign=middle;strokeColor=none;fillColor=none;whiteSpace=wrap;spacingLeft=10;" parent="7C7tb2xBEg-E1_7drB_p-3" vertex="1">
          <mxGeometry y="42" width="200" height="48" as="geometry" />
        </mxCell>
        <mxCell id="7C7tb2xBEg-E1_7drB_p-8" value="Id=&quot;2.1.1&quot;" style="html=1;align=left;spacing=0;verticalAlign=middle;strokeColor=none;fillColor=none;whiteSpace=wrap;spacingLeft=10;" parent="7C7tb2xBEg-E1_7drB_p-3" vertex="1">
          <mxGeometry y="90" width="200" height="16" as="geometry" />
        </mxCell>
        <mxCell id="7C7tb2xBEg-E1_7drB_p-9" value="" style="html=1;align=center;spacing=0;verticalAlign=middle;strokeColor=none;fillColor=none;whiteSpace=wrap;" parent="7C7tb2xBEg-E1_7drB_p-3" vertex="1">
          <mxGeometry y="106" width="200" height="26" as="geometry" />
        </mxCell>
        <mxCell id="7C7tb2xBEg-E1_7drB_p-11" value="" style="fontStyle=1;align=center;verticalAlign=middle;childLayout=stackLayout;horizontal=1;horizontalStack=0;resizeParent=1;resizeParentMax=0;resizeLast=0;marginBottom=0;" parent="1" vertex="1">
          <mxGeometry x="-320" y="640" width="200" height="132" as="geometry" />
        </mxCell>
        <mxCell id="7C7tb2xBEg-E1_7drB_p-12" value="&amp;lt;&amp;lt;requirement&amp;gt;&amp;gt;" style="html=1;align=center;spacing=0;verticalAlign=middle;strokeColor=none;fillColor=none;whiteSpace=wrap;spacingTop=3;" parent="7C7tb2xBEg-E1_7drB_p-11" vertex="1">
          <mxGeometry width="200" height="16" as="geometry" />
        </mxCell>
        <mxCell id="7C7tb2xBEg-E1_7drB_p-13" value="Données Traitées" style="html=1;align=center;spacing=0;verticalAlign=middle;strokeColor=none;fillColor=none;whiteSpace=wrap;fontStyle=1" parent="7C7tb2xBEg-E1_7drB_p-11" vertex="1">
          <mxGeometry y="16" width="200" height="18" as="geometry" />
        </mxCell>
        <mxCell id="7C7tb2xBEg-E1_7drB_p-14" value="" style="line;strokeWidth=0.25;fillColor=none;align=left;verticalAlign=middle;spacingTop=-1;spacingLeft=3;spacingRight=3;rotatable=0;labelPosition=right;points=[];portConstraint=eastwest;" parent="7C7tb2xBEg-E1_7drB_p-11" vertex="1">
          <mxGeometry y="34" width="200" height="8" as="geometry" />
        </mxCell>
        <mxCell id="7C7tb2xBEg-E1_7drB_p-15" value="text=&quot;Les Données Traitées devront être conservées selon les critères du cahier des charges.&quot;" style="html=1;align=left;spacing=0;verticalAlign=middle;strokeColor=none;fillColor=none;whiteSpace=wrap;spacingLeft=10;" parent="7C7tb2xBEg-E1_7drB_p-11" vertex="1">
          <mxGeometry y="42" width="200" height="48" as="geometry" />
        </mxCell>
        <mxCell id="7C7tb2xBEg-E1_7drB_p-16" value="Id=&quot;2.1.2&quot;" style="html=1;align=left;spacing=0;verticalAlign=middle;strokeColor=none;fillColor=none;whiteSpace=wrap;spacingLeft=10;" parent="7C7tb2xBEg-E1_7drB_p-11" vertex="1">
          <mxGeometry y="90" width="200" height="16" as="geometry" />
        </mxCell>
        <mxCell id="7C7tb2xBEg-E1_7drB_p-17" value="" style="html=1;align=center;spacing=0;verticalAlign=middle;strokeColor=none;fillColor=none;whiteSpace=wrap;" parent="7C7tb2xBEg-E1_7drB_p-11" vertex="1">
          <mxGeometry y="106" width="200" height="26" as="geometry" />
        </mxCell>
        <mxCell id="7C7tb2xBEg-E1_7drB_p-18" value="" style="fontStyle=1;align=center;verticalAlign=middle;childLayout=stackLayout;horizontal=1;horizontalStack=0;resizeParent=1;resizeParentMax=0;resizeLast=0;marginBottom=0;" parent="1" vertex="1">
          <mxGeometry x="-120" y="640" width="200" height="132" as="geometry" />
        </mxCell>
        <mxCell id="7C7tb2xBEg-E1_7drB_p-19" value="&amp;lt;&amp;lt;requirement&amp;gt;&amp;gt;" style="html=1;align=center;spacing=0;verticalAlign=middle;strokeColor=none;fillColor=none;whiteSpace=wrap;spacingTop=3;" parent="7C7tb2xBEg-E1_7drB_p-18" vertex="1">
          <mxGeometry width="200" height="16" as="geometry" />
        </mxCell>
        <mxCell id="7C7tb2xBEg-E1_7drB_p-20" value="Type de données" style="html=1;align=center;spacing=0;verticalAlign=middle;strokeColor=none;fillColor=none;whiteSpace=wrap;fontStyle=1" parent="7C7tb2xBEg-E1_7drB_p-18" vertex="1">
          <mxGeometry y="16" width="200" height="18" as="geometry" />
        </mxCell>
        <mxCell id="7C7tb2xBEg-E1_7drB_p-21" value="" style="line;strokeWidth=0.25;fillColor=none;align=left;verticalAlign=middle;spacingTop=-1;spacingLeft=3;spacingRight=3;rotatable=0;labelPosition=right;points=[];portConstraint=eastwest;" parent="7C7tb2xBEg-E1_7drB_p-18" vertex="1">
          <mxGeometry y="34" width="200" height="8" as="geometry" />
        </mxCell>
        <mxCell id="7C7tb2xBEg-E1_7drB_p-22" value="text=&quot;La base de données devra pouvoir accueillir des informations de tous ces types : image, ect..&quot;" style="html=1;align=left;spacing=0;verticalAlign=middle;strokeColor=none;fillColor=none;whiteSpace=wrap;spacingLeft=10;" parent="7C7tb2xBEg-E1_7drB_p-18" vertex="1">
          <mxGeometry y="42" width="200" height="48" as="geometry" />
        </mxCell>
        <mxCell id="7C7tb2xBEg-E1_7drB_p-23" value="Id=&quot;2.1.3&quot;" style="html=1;align=left;spacing=0;verticalAlign=middle;strokeColor=none;fillColor=none;whiteSpace=wrap;spacingLeft=10;" parent="7C7tb2xBEg-E1_7drB_p-18" vertex="1">
          <mxGeometry y="90" width="200" height="16" as="geometry" />
        </mxCell>
        <mxCell id="7C7tb2xBEg-E1_7drB_p-24" value="" style="html=1;align=center;spacing=0;verticalAlign=middle;strokeColor=none;fillColor=none;whiteSpace=wrap;" parent="7C7tb2xBEg-E1_7drB_p-18" vertex="1">
          <mxGeometry y="106" width="200" height="26" as="geometry" />
        </mxCell>
        <mxCell id="7C7tb2xBEg-E1_7drB_p-25" value="" style="fontStyle=1;align=center;verticalAlign=middle;childLayout=stackLayout;horizontal=1;horizontalStack=0;resizeParent=1;resizeParentMax=0;resizeLast=0;marginBottom=0;" parent="1" vertex="1">
          <mxGeometry x="130" y="640" width="200" height="162" as="geometry" />
        </mxCell>
        <mxCell id="7C7tb2xBEg-E1_7drB_p-26" value="&amp;lt;&amp;lt;requirement&amp;gt;&amp;gt;" style="html=1;align=center;spacing=0;verticalAlign=middle;strokeColor=none;fillColor=none;whiteSpace=wrap;spacingTop=3;" parent="7C7tb2xBEg-E1_7drB_p-25" vertex="1">
          <mxGeometry width="200" height="16" as="geometry" />
        </mxCell>
        <mxCell id="7C7tb2xBEg-E1_7drB_p-27" value="Réception des Données" style="html=1;align=center;spacing=0;verticalAlign=middle;strokeColor=none;fillColor=none;whiteSpace=wrap;fontStyle=1" parent="7C7tb2xBEg-E1_7drB_p-25" vertex="1">
          <mxGeometry y="16" width="200" height="18" as="geometry" />
        </mxCell>
        <mxCell id="7C7tb2xBEg-E1_7drB_p-28" value="" style="line;strokeWidth=0.25;fillColor=none;align=left;verticalAlign=middle;spacingTop=-1;spacingLeft=3;spacingRight=3;rotatable=0;labelPosition=right;points=[];portConstraint=eastwest;" parent="7C7tb2xBEg-E1_7drB_p-25" vertex="1">
          <mxGeometry y="34" width="200" height="8" as="geometry" />
        </mxCell>
        <mxCell id="7C7tb2xBEg-E1_7drB_p-29" value="text=&quot;Le SysT devra être en mesure de recevoir les informations envoyées par le système d&#39;aquisition à tout instant et ce sans intervention humaines&quot;" style="html=1;align=left;spacing=0;verticalAlign=middle;strokeColor=none;fillColor=none;whiteSpace=wrap;spacingLeft=10;" parent="7C7tb2xBEg-E1_7drB_p-25" vertex="1">
          <mxGeometry y="42" width="200" height="78" as="geometry" />
        </mxCell>
        <mxCell id="7C7tb2xBEg-E1_7drB_p-30" value="Id=&quot;2.2.1&quot;" style="html=1;align=left;spacing=0;verticalAlign=middle;strokeColor=none;fillColor=none;whiteSpace=wrap;spacingLeft=10;" parent="7C7tb2xBEg-E1_7drB_p-25" vertex="1">
          <mxGeometry y="120" width="200" height="16" as="geometry" />
        </mxCell>
        <mxCell id="7C7tb2xBEg-E1_7drB_p-31" value="" style="html=1;align=center;spacing=0;verticalAlign=middle;strokeColor=none;fillColor=none;whiteSpace=wrap;" parent="7C7tb2xBEg-E1_7drB_p-25" vertex="1">
          <mxGeometry y="136" width="200" height="26" as="geometry" />
        </mxCell>
        <mxCell id="7C7tb2xBEg-E1_7drB_p-33" value="" style="fontStyle=1;align=center;verticalAlign=middle;childLayout=stackLayout;horizontal=1;horizontalStack=0;resizeParent=1;resizeParentMax=0;resizeLast=0;marginBottom=0;" parent="1" vertex="1">
          <mxGeometry x="330" y="640" width="200" height="162" as="geometry" />
        </mxCell>
        <mxCell id="7C7tb2xBEg-E1_7drB_p-34" value="&amp;lt;&amp;lt;requirement&amp;gt;&amp;gt;" style="html=1;align=center;spacing=0;verticalAlign=middle;strokeColor=none;fillColor=none;whiteSpace=wrap;spacingTop=3;" parent="7C7tb2xBEg-E1_7drB_p-33" vertex="1">
          <mxGeometry width="200" height="16" as="geometry" />
        </mxCell>
        <mxCell id="7C7tb2xBEg-E1_7drB_p-35" value="Archivage des Données" style="html=1;align=center;spacing=0;verticalAlign=middle;strokeColor=none;fillColor=none;whiteSpace=wrap;fontStyle=1" parent="7C7tb2xBEg-E1_7drB_p-33" vertex="1">
          <mxGeometry y="16" width="200" height="18" as="geometry" />
        </mxCell>
        <mxCell id="7C7tb2xBEg-E1_7drB_p-36" value="" style="line;strokeWidth=0.25;fillColor=none;align=left;verticalAlign=middle;spacingTop=-1;spacingLeft=3;spacingRight=3;rotatable=0;labelPosition=right;points=[];portConstraint=eastwest;" parent="7C7tb2xBEg-E1_7drB_p-33" vertex="1">
          <mxGeometry y="34" width="200" height="8" as="geometry" />
        </mxCell>
        <mxCell id="7C7tb2xBEg-E1_7drB_p-37" value="text=&quot;Les Données reçues devront être triées placées dans la base de donnée sans intervention humaine&quot;" style="html=1;align=left;spacing=0;verticalAlign=middle;strokeColor=none;fillColor=none;whiteSpace=wrap;spacingLeft=10;" parent="7C7tb2xBEg-E1_7drB_p-33" vertex="1">
          <mxGeometry y="42" width="200" height="78" as="geometry" />
        </mxCell>
        <mxCell id="7C7tb2xBEg-E1_7drB_p-38" value="Id=&quot;2.2.2&quot;" style="html=1;align=left;spacing=0;verticalAlign=middle;strokeColor=none;fillColor=none;whiteSpace=wrap;spacingLeft=10;" parent="7C7tb2xBEg-E1_7drB_p-33" vertex="1">
          <mxGeometry y="120" width="200" height="16" as="geometry" />
        </mxCell>
        <mxCell id="7C7tb2xBEg-E1_7drB_p-39" value="" style="html=1;align=center;spacing=0;verticalAlign=middle;strokeColor=none;fillColor=none;whiteSpace=wrap;" parent="7C7tb2xBEg-E1_7drB_p-33" vertex="1">
          <mxGeometry y="136" width="200" height="26" as="geometry" />
        </mxCell>
        <mxCell id="7C7tb2xBEg-E1_7drB_p-89" value="" style="fontStyle=1;align=center;verticalAlign=middle;childLayout=stackLayout;horizontal=1;horizontalStack=0;resizeParent=1;resizeParentMax=0;resizeLast=0;marginBottom=0;" parent="1" vertex="1">
          <mxGeometry x="660" y="640" width="190" height="172" as="geometry" />
        </mxCell>
        <mxCell id="7C7tb2xBEg-E1_7drB_p-90" value="&amp;lt;&amp;lt;requirement&amp;gt;&amp;gt;" style="html=1;align=center;spacing=0;verticalAlign=middle;strokeColor=none;fillColor=none;whiteSpace=wrap;spacingTop=3;" parent="7C7tb2xBEg-E1_7drB_p-89" vertex="1">
          <mxGeometry width="190" height="16" as="geometry" />
        </mxCell>
        <mxCell id="7C7tb2xBEg-E1_7drB_p-91" value="Réception des Données" style="html=1;align=center;spacing=0;verticalAlign=middle;strokeColor=none;fillColor=none;whiteSpace=wrap;fontStyle=1" parent="7C7tb2xBEg-E1_7drB_p-89" vertex="1">
          <mxGeometry y="16" width="190" height="18" as="geometry" />
        </mxCell>
        <mxCell id="7C7tb2xBEg-E1_7drB_p-92" value="" style="line;strokeWidth=0.25;fillColor=none;align=left;verticalAlign=middle;spacingTop=-1;spacingLeft=3;spacingRight=3;rotatable=0;labelPosition=right;points=[];portConstraint=eastwest;" parent="7C7tb2xBEg-E1_7drB_p-89" vertex="1">
          <mxGeometry y="34" width="190" height="8" as="geometry" />
        </mxCell>
        <mxCell id="7C7tb2xBEg-E1_7drB_p-93" value="&lt;div style=&quot;&quot;&gt;&lt;span style=&quot;background-color: transparent; color: light-dark(rgb(0, 0, 0), rgb(255, 255, 255));&quot;&gt;text=&quot;Le SysT devra de façon périodique récupérer les informations sélectionner et les mettre à disposition de l&#39;IHM sans intervention humaine.&lt;/span&gt;&lt;span style=&quot;background-color: transparent; color: light-dark(rgb(0, 0, 0), rgb(255, 255, 255));&quot;&gt;&quot;&lt;/span&gt;&lt;/div&gt;" style="html=1;align=left;spacing=0;verticalAlign=middle;strokeColor=none;fillColor=none;whiteSpace=wrap;spacingLeft=10;" parent="7C7tb2xBEg-E1_7drB_p-89" vertex="1">
          <mxGeometry y="42" width="190" height="88" as="geometry" />
        </mxCell>
        <mxCell id="7C7tb2xBEg-E1_7drB_p-94" value="Id=&quot;2.3.1&quot;" style="html=1;align=left;spacing=0;verticalAlign=middle;strokeColor=none;fillColor=none;whiteSpace=wrap;spacingLeft=10;" parent="7C7tb2xBEg-E1_7drB_p-89" vertex="1">
          <mxGeometry y="130" width="190" height="16" as="geometry" />
        </mxCell>
        <mxCell id="7C7tb2xBEg-E1_7drB_p-95" value="" style="html=1;align=center;spacing=0;verticalAlign=middle;strokeColor=none;fillColor=none;whiteSpace=wrap;" parent="7C7tb2xBEg-E1_7drB_p-89" vertex="1">
          <mxGeometry y="146" width="190" height="26" as="geometry" />
        </mxCell>
        <mxCell id="7C7tb2xBEg-E1_7drB_p-96" value="" style="fontStyle=1;align=center;verticalAlign=middle;childLayout=stackLayout;horizontal=1;horizontalStack=0;resizeParent=1;resizeParentMax=0;resizeLast=0;marginBottom=0;" parent="1" vertex="1">
          <mxGeometry x="850" y="640" width="200" height="162" as="geometry" />
        </mxCell>
        <mxCell id="7C7tb2xBEg-E1_7drB_p-97" value="&amp;lt;&amp;lt;requirement&amp;gt;&amp;gt;" style="html=1;align=center;spacing=0;verticalAlign=middle;strokeColor=none;fillColor=none;whiteSpace=wrap;spacingTop=3;" parent="7C7tb2xBEg-E1_7drB_p-96" vertex="1">
          <mxGeometry width="200" height="16" as="geometry" />
        </mxCell>
        <mxCell id="7C7tb2xBEg-E1_7drB_p-98" value="Archivage des Données" style="html=1;align=center;spacing=0;verticalAlign=middle;strokeColor=none;fillColor=none;whiteSpace=wrap;fontStyle=1" parent="7C7tb2xBEg-E1_7drB_p-96" vertex="1">
          <mxGeometry y="16" width="200" height="18" as="geometry" />
        </mxCell>
        <mxCell id="7C7tb2xBEg-E1_7drB_p-99" value="" style="line;strokeWidth=0.25;fillColor=none;align=left;verticalAlign=middle;spacingTop=-1;spacingLeft=3;spacingRight=3;rotatable=0;labelPosition=right;points=[];portConstraint=eastwest;" parent="7C7tb2xBEg-E1_7drB_p-96" vertex="1">
          <mxGeometry y="34" width="200" height="8" as="geometry" />
        </mxCell>
        <mxCell id="7C7tb2xBEg-E1_7drB_p-100" value="text=&quot;Les Données choisies ne seront pas envoyée mais mises à la portée de l&#39;IHM&quot;" style="html=1;align=left;spacing=0;verticalAlign=middle;strokeColor=none;fillColor=none;whiteSpace=wrap;spacingLeft=10;" parent="7C7tb2xBEg-E1_7drB_p-96" vertex="1">
          <mxGeometry y="42" width="200" height="78" as="geometry" />
        </mxCell>
        <mxCell id="7C7tb2xBEg-E1_7drB_p-101" value="Id=&quot;2.3.2&quot;" style="html=1;align=left;spacing=0;verticalAlign=middle;strokeColor=none;fillColor=none;whiteSpace=wrap;spacingLeft=10;" parent="7C7tb2xBEg-E1_7drB_p-96" vertex="1">
          <mxGeometry y="120" width="200" height="16" as="geometry" />
        </mxCell>
        <mxCell id="7C7tb2xBEg-E1_7drB_p-102" value="" style="html=1;align=center;spacing=0;verticalAlign=middle;strokeColor=none;fillColor=none;whiteSpace=wrap;" parent="7C7tb2xBEg-E1_7drB_p-96" vertex="1">
          <mxGeometry y="136" width="200" height="26" as="geometry" />
        </mxCell>
        <mxCell id="7C7tb2xBEg-E1_7drB_p-110" value="" style="rounded=0;html=1;labelBackgroundColor=none;endArrow=none;edgeStyle=elbowEdgeStyle;elbow=vertical;startArrow=sysMLPackCont;startSize=12;exitX=0.5;exitY=1;exitDx=0;exitDy=0;entryX=0.5;entryY=0;entryDx=0;entryDy=0;" parent="1" source="8Gsik2gFyO7fR51Xn3zr-10" target="8Gsik2gFyO7fR51Xn3zr-98" edge="1">
          <mxGeometry relative="1" as="geometry">
            <mxPoint x="1060" y="920" as="sourcePoint" />
            <mxPoint x="1150" y="980" as="targetPoint" />
            <Array as="points">
              <mxPoint x="1000" y="360" />
              <mxPoint x="870" y="363" />
            </Array>
          </mxGeometry>
        </mxCell>
        <mxCell id="7C7tb2xBEg-E1_7drB_p-119" value="" style="rounded=0;html=1;labelBackgroundColor=none;endArrow=none;edgeStyle=elbowEdgeStyle;elbow=vertical;startArrow=sysMLPackCont;startSize=12;exitX=0.5;exitY=1;exitDx=0;exitDy=0;entryX=0.5;entryY=0;entryDx=0;entryDy=0;" parent="1" source="8Gsik2gFyO7fR51Xn3zr-10" target="8Gsik2gFyO7fR51Xn3zr-13" edge="1">
          <mxGeometry relative="1" as="geometry">
            <mxPoint x="1130" y="600" as="targetPoint" />
          </mxGeometry>
        </mxCell>
        <mxCell id="7C7tb2xBEg-E1_7drB_p-120" value="" style="rounded=0;html=1;labelBackgroundColor=none;endArrow=none;edgeStyle=elbowEdgeStyle;elbow=vertical;startArrow=sysMLPackCont;startSize=12;exitX=0.5;exitY=1;exitDx=0;exitDy=0;entryX=0.5;entryY=0;entryDx=0;entryDy=0;" parent="1" source="8Gsik2gFyO7fR51Xn3zr-10" target="8Gsik2gFyO7fR51Xn3zr-91" edge="1">
          <mxGeometry relative="1" as="geometry">
            <mxPoint x="1110" y="970" as="sourcePoint" />
            <mxPoint x="1020" y="1030" as="targetPoint" />
          </mxGeometry>
        </mxCell>
        <mxCell id="7C7tb2xBEg-E1_7drB_p-121" value="" style="rounded=0;html=1;labelBackgroundColor=none;endArrow=none;edgeStyle=elbowEdgeStyle;elbow=vertical;startArrow=sysMLPackCont;startSize=12;entryX=0.5;entryY=0;entryDx=0;entryDy=0;exitX=0.5;exitY=1;exitDx=0;exitDy=0;" parent="1" source="8Gsik2gFyO7fR51Xn3zr-10" target="8Gsik2gFyO7fR51Xn3zr-105" edge="1">
          <mxGeometry relative="1" as="geometry">
            <mxPoint x="1120" y="980" as="sourcePoint" />
            <mxPoint x="1030" y="1040" as="targetPoint" />
          </mxGeometry>
        </mxCell>
        <mxCell id="7C7tb2xBEg-E1_7drB_p-122" value="" style="rounded=0;html=1;labelBackgroundColor=none;endArrow=none;edgeStyle=elbowEdgeStyle;elbow=vertical;startArrow=sysMLPackCont;startSize=12;exitX=0.5;exitY=1;exitDx=0;exitDy=0;entryX=0.5;entryY=0;entryDx=0;entryDy=0;" parent="1" source="8Gsik2gFyO7fR51Xn3zr-17" target="8Gsik2gFyO7fR51Xn3zr-25" edge="1">
          <mxGeometry relative="1" as="geometry">
            <mxPoint x="1130" y="990" as="sourcePoint" />
            <mxPoint x="1040" y="1050" as="targetPoint" />
          </mxGeometry>
        </mxCell>
        <mxCell id="7C7tb2xBEg-E1_7drB_p-124" value="" style="rounded=0;html=1;labelBackgroundColor=none;endArrow=none;edgeStyle=elbowEdgeStyle;elbow=vertical;startArrow=sysMLPackCont;startSize=12;exitX=0.5;exitY=1;exitDx=0;exitDy=0;entryX=0.5;entryY=0;entryDx=0;entryDy=0;" parent="1" source="8Gsik2gFyO7fR51Xn3zr-17" target="8Gsik2gFyO7fR51Xn3zr-32" edge="1">
          <mxGeometry relative="1" as="geometry">
            <mxPoint x="1695" y="586" as="sourcePoint" />
            <mxPoint x="1050" y="1060" as="targetPoint" />
          </mxGeometry>
        </mxCell>
        <mxCell id="7C7tb2xBEg-E1_7drB_p-125" value="" style="rounded=0;html=1;labelBackgroundColor=none;endArrow=none;edgeStyle=elbowEdgeStyle;elbow=vertical;startArrow=sysMLPackCont;startSize=12;exitX=0.5;exitY=1;exitDx=0;exitDy=0;entryX=0.5;entryY=0;entryDx=0;entryDy=0;" parent="1" source="8Gsik2gFyO7fR51Xn3zr-17" target="8Gsik2gFyO7fR51Xn3zr-39" edge="1">
          <mxGeometry relative="1" as="geometry">
            <mxPoint x="1705" y="596" as="sourcePoint" />
            <mxPoint x="1060" y="1070" as="targetPoint" />
          </mxGeometry>
        </mxCell>
        <mxCell id="7C7tb2xBEg-E1_7drB_p-127" value="" style="rounded=0;html=1;labelBackgroundColor=none;endArrow=none;edgeStyle=elbowEdgeStyle;elbow=vertical;startArrow=sysMLPackCont;startSize=12;exitX=0.5;exitY=1;exitDx=0;exitDy=0;entryX=0.5;entryY=0;entryDx=0;entryDy=0;" parent="1" source="8Gsik2gFyO7fR51Xn3zr-17" target="8Gsik2gFyO7fR51Xn3zr-68" edge="1">
          <mxGeometry relative="1" as="geometry">
            <mxPoint x="1715" y="606" as="sourcePoint" />
            <mxPoint x="1070" y="1080" as="targetPoint" />
          </mxGeometry>
        </mxCell>
        <mxCell id="7C7tb2xBEg-E1_7drB_p-128" value="" style="rounded=0;html=1;labelBackgroundColor=none;endArrow=none;edgeStyle=elbowEdgeStyle;elbow=vertical;startArrow=sysMLPackCont;startSize=12;exitX=0.5;exitY=1;exitDx=0;exitDy=0;entryX=0.5;entryY=0;entryDx=0;entryDy=0;" parent="1" source="8Gsik2gFyO7fR51Xn3zr-17" target="8Gsik2gFyO7fR51Xn3zr-54" edge="1">
          <mxGeometry relative="1" as="geometry">
            <mxPoint x="1725" y="616" as="sourcePoint" />
            <mxPoint x="1080" y="1090" as="targetPoint" />
            <Array as="points">
              <mxPoint x="1450" y="790" />
            </Array>
          </mxGeometry>
        </mxCell>
        <mxCell id="7C7tb2xBEg-E1_7drB_p-129" value="" style="rounded=0;html=1;labelBackgroundColor=none;endArrow=none;edgeStyle=elbowEdgeStyle;elbow=vertical;startArrow=sysMLPackCont;startSize=12;exitX=0.5;exitY=1;exitDx=0;exitDy=0;entryX=0.5;entryY=0;entryDx=0;entryDy=0;" parent="1" source="8Gsik2gFyO7fR51Xn3zr-17" target="8Gsik2gFyO7fR51Xn3zr-75" edge="1">
          <mxGeometry relative="1" as="geometry">
            <mxPoint x="1735" y="626" as="sourcePoint" />
            <mxPoint x="1090" y="1100" as="targetPoint" />
            <Array as="points">
              <mxPoint x="1550" y="790" />
            </Array>
          </mxGeometry>
        </mxCell>
        <mxCell id="7C7tb2xBEg-E1_7drB_p-130" value="" style="rounded=0;html=1;labelBackgroundColor=none;endArrow=none;edgeStyle=elbowEdgeStyle;elbow=vertical;startArrow=sysMLPackCont;startSize=12;exitX=0.5;exitY=1;exitDx=0;exitDy=0;entryX=0.5;entryY=0;entryDx=0;entryDy=0;" parent="1" source="8Gsik2gFyO7fR51Xn3zr-17" target="8Gsik2gFyO7fR51Xn3zr-61" edge="1">
          <mxGeometry relative="1" as="geometry">
            <mxPoint x="1745" y="636" as="sourcePoint" />
            <mxPoint x="1100" y="1110" as="targetPoint" />
            <Array as="points">
              <mxPoint x="1690" y="790" />
            </Array>
          </mxGeometry>
        </mxCell>
        <mxCell id="7C7tb2xBEg-E1_7drB_p-131" value="" style="rounded=0;html=1;labelBackgroundColor=none;endArrow=none;edgeStyle=elbowEdgeStyle;elbow=vertical;startArrow=sysMLPackCont;startSize=12;exitX=0.5;exitY=1;exitDx=0;exitDy=0;entryX=0.5;entryY=0;entryDx=0;entryDy=0;" parent="1" source="8Gsik2gFyO7fR51Xn3zr-17" target="8Gsik2gFyO7fR51Xn3zr-82" edge="1">
          <mxGeometry relative="1" as="geometry">
            <mxPoint x="1755" y="646" as="sourcePoint" />
            <mxPoint x="1110" y="1120" as="targetPoint" />
            <Array as="points">
              <mxPoint x="1800" y="790" />
            </Array>
          </mxGeometry>
        </mxCell>
        <mxCell id="7C7tb2xBEg-E1_7drB_p-132" value="" style="rounded=0;html=1;labelBackgroundColor=none;endArrow=none;edgeStyle=elbowEdgeStyle;elbow=vertical;startArrow=sysMLPackCont;startSize=12;exitX=0.5;exitY=1;exitDx=0;exitDy=0;entryX=0.5;entryY=0;entryDx=0;entryDy=0;" parent="1" source="8Gsik2gFyO7fR51Xn3zr-17" target="8Gsik2gFyO7fR51Xn3zr-47" edge="1">
          <mxGeometry relative="1" as="geometry">
            <mxPoint x="1765" y="656" as="sourcePoint" />
            <mxPoint x="1120" y="1130" as="targetPoint" />
            <Array as="points">
              <mxPoint x="1910" y="790" />
            </Array>
          </mxGeometry>
        </mxCell>
        <mxCell id="7C7tb2xBEg-E1_7drB_p-138" value="" style="fontStyle=1;align=center;verticalAlign=middle;childLayout=stackLayout;horizontal=1;horizontalStack=0;resizeParent=1;resizeParentMax=0;resizeLast=0;marginBottom=0;" parent="1" vertex="1">
          <mxGeometry x="1350" y="1040" width="200" height="162" as="geometry" />
        </mxCell>
        <mxCell id="7C7tb2xBEg-E1_7drB_p-139" value="&amp;lt;&amp;lt;requirement&amp;gt;&amp;gt;" style="html=1;align=center;spacing=0;verticalAlign=middle;strokeColor=none;fillColor=none;whiteSpace=wrap;spacingTop=3;" parent="7C7tb2xBEg-E1_7drB_p-138" vertex="1">
          <mxGeometry width="200" height="16" as="geometry" />
        </mxCell>
        <mxCell id="7C7tb2xBEg-E1_7drB_p-140" value="Variables d&#39;évaporation" style="html=1;align=center;spacing=0;verticalAlign=middle;strokeColor=none;fillColor=none;whiteSpace=wrap;fontStyle=1" parent="7C7tb2xBEg-E1_7drB_p-138" vertex="1">
          <mxGeometry y="16" width="200" height="18" as="geometry" />
        </mxCell>
        <mxCell id="7C7tb2xBEg-E1_7drB_p-141" value="" style="line;strokeWidth=0.25;fillColor=none;align=left;verticalAlign=middle;spacingTop=-1;spacingLeft=3;spacingRight=3;rotatable=0;labelPosition=right;points=[];portConstraint=eastwest;" parent="7C7tb2xBEg-E1_7drB_p-138" vertex="1">
          <mxGeometry y="34" width="200" height="8" as="geometry" />
        </mxCell>
        <mxCell id="7C7tb2xBEg-E1_7drB_p-142" value="text=&quot;l&#39;évaporation du sol sera calculée à partir du vent, l&#39;ensoleillement ainsi que les températures&quot;" style="html=1;align=left;spacing=0;verticalAlign=middle;strokeColor=none;fillColor=none;whiteSpace=wrap;spacingLeft=10;" parent="7C7tb2xBEg-E1_7drB_p-138" vertex="1">
          <mxGeometry y="42" width="200" height="78" as="geometry" />
        </mxCell>
        <mxCell id="7C7tb2xBEg-E1_7drB_p-143" value="Id=&quot;2.2.5.1&quot;" style="html=1;align=left;spacing=0;verticalAlign=middle;strokeColor=none;fillColor=none;whiteSpace=wrap;spacingLeft=10;" parent="7C7tb2xBEg-E1_7drB_p-138" vertex="1">
          <mxGeometry y="120" width="200" height="16" as="geometry" />
        </mxCell>
        <mxCell id="7C7tb2xBEg-E1_7drB_p-144" value="" style="html=1;align=center;spacing=0;verticalAlign=middle;strokeColor=none;fillColor=none;whiteSpace=wrap;" parent="7C7tb2xBEg-E1_7drB_p-138" vertex="1">
          <mxGeometry y="136" width="200" height="26" as="geometry" />
        </mxCell>
        <mxCell id="7C7tb2xBEg-E1_7drB_p-146" value="" style="rounded=0;html=1;labelBackgroundColor=none;endArrow=none;edgeStyle=elbowEdgeStyle;elbow=vertical;startArrow=sysMLPackCont;startSize=12;exitX=0.5;exitY=1;exitDx=0;exitDy=0;entryX=0.5;entryY=0;entryDx=0;entryDy=0;" parent="1" source="8Gsik2gFyO7fR51Xn3zr-96" target="7C7tb2xBEg-E1_7drB_p-4" edge="1">
          <mxGeometry relative="1" as="geometry">
            <mxPoint x="751.5" y="456" as="sourcePoint" />
            <mxPoint x="-455.5" y="640" as="targetPoint" />
          </mxGeometry>
        </mxCell>
        <mxCell id="7C7tb2xBEg-E1_7drB_p-147" value="" style="rounded=0;html=1;labelBackgroundColor=none;endArrow=none;edgeStyle=elbowEdgeStyle;elbow=vertical;startArrow=sysMLPackCont;startSize=12;exitX=0.5;exitY=1;exitDx=0;exitDy=0;entryX=0.5;entryY=0;entryDx=0;entryDy=0;" parent="1" source="8Gsik2gFyO7fR51Xn3zr-96" target="7C7tb2xBEg-E1_7drB_p-12" edge="1">
          <mxGeometry relative="1" as="geometry">
            <mxPoint x="20" y="520" as="sourcePoint" />
            <mxPoint x="-60" y="558" as="targetPoint" />
            <Array as="points" />
          </mxGeometry>
        </mxCell>
        <mxCell id="7C7tb2xBEg-E1_7drB_p-149" value="" style="rounded=0;html=1;labelBackgroundColor=none;endArrow=none;edgeStyle=elbowEdgeStyle;elbow=vertical;startArrow=sysMLPackCont;startSize=12;exitX=0.5;exitY=1;exitDx=0;exitDy=0;entryX=0.5;entryY=0;entryDx=0;entryDy=0;" parent="1" source="8Gsik2gFyO7fR51Xn3zr-96" target="7C7tb2xBEg-E1_7drB_p-19" edge="1">
          <mxGeometry relative="1" as="geometry">
            <mxPoint x="-320" y="622" as="sourcePoint" />
            <mxPoint x="-210" y="650" as="targetPoint" />
            <Array as="points" />
          </mxGeometry>
        </mxCell>
        <mxCell id="7C7tb2xBEg-E1_7drB_p-153" value="&amp;lt;&amp;lt;deriveReq&amp;gt;&amp;gt;" style="endArrow=open;html=1;edgeStyle=none;endSize=12;dashed=1;rounded=0;entryX=0.5;entryY=1;entryDx=0;entryDy=0;exitX=0.5;exitY=0;exitDx=0;exitDy=0;" parent="1" source="7C7tb2xBEg-E1_7drB_p-26" target="8Gsik2gFyO7fR51Xn3zr-110" edge="1">
          <mxGeometry relative="1" as="geometry">
            <mxPoint x="120" y="612" as="sourcePoint" />
            <mxPoint x="240" y="612" as="targetPoint" />
          </mxGeometry>
        </mxCell>
        <mxCell id="7C7tb2xBEg-E1_7drB_p-154" value="&amp;lt;&amp;lt;deriveReq&amp;gt;&amp;gt;" style="endArrow=open;html=1;edgeStyle=none;endSize=12;dashed=1;rounded=0;entryX=0.5;entryY=1;entryDx=0;entryDy=0;exitX=0.5;exitY=0;exitDx=0;exitDy=0;" parent="1" source="7C7tb2xBEg-E1_7drB_p-34" target="8Gsik2gFyO7fR51Xn3zr-110" edge="1">
          <mxGeometry relative="1" as="geometry">
            <mxPoint x="240" y="650" as="sourcePoint" />
            <mxPoint x="340" y="602" as="targetPoint" />
          </mxGeometry>
        </mxCell>
        <mxCell id="7C7tb2xBEg-E1_7drB_p-156" value="" style="rounded=0;html=1;labelBackgroundColor=none;endArrow=none;edgeStyle=elbowEdgeStyle;elbow=vertical;startArrow=sysMLPackCont;startSize=12;entryX=0.5;entryY=0;entryDx=0;entryDy=0;exitX=0.5;exitY=1;exitDx=0;exitDy=0;" parent="1" source="8Gsik2gFyO7fR51Xn3zr-103" target="7C7tb2xBEg-E1_7drB_p-90" edge="1">
          <mxGeometry relative="1" as="geometry">
            <mxPoint x="887" y="276" as="sourcePoint" />
            <mxPoint x="340" y="460" as="targetPoint" />
          </mxGeometry>
        </mxCell>
        <mxCell id="7C7tb2xBEg-E1_7drB_p-157" value="" style="rounded=0;html=1;labelBackgroundColor=none;endArrow=none;edgeStyle=elbowEdgeStyle;elbow=vertical;startArrow=sysMLPackCont;startSize=12;entryX=0.5;entryY=0;entryDx=0;entryDy=0;exitX=0.5;exitY=1;exitDx=0;exitDy=0;" parent="1" source="8Gsik2gFyO7fR51Xn3zr-103" target="7C7tb2xBEg-E1_7drB_p-97" edge="1">
          <mxGeometry relative="1" as="geometry">
            <mxPoint x="887" y="602" as="sourcePoint" />
            <mxPoint x="765" y="650" as="targetPoint" />
          </mxGeometry>
        </mxCell>
        <mxCell id="7C7tb2xBEg-E1_7drB_p-160" value="&amp;lt;&amp;lt;satisfy&amp;gt;&amp;gt;" style="endArrow=open;edgeStyle=none;endSize=12;dashed=1;html=1;rounded=0;" parent="1" edge="1">
          <mxGeometry relative="1" as="geometry">
            <mxPoint x="1430" y="910" as="sourcePoint" />
          </mxGeometry>
        </mxCell>
        <mxCell id="7C7tb2xBEg-E1_7drB_p-166" value="&amp;lt;&amp;lt;satisfy&amp;gt;&amp;gt;" style="endArrow=open;edgeStyle=none;endSize=12;dashed=1;html=1;rounded=0;exitX=0.5;exitY=0;exitDx=0;exitDy=0;entryX=0.5;entryY=1;entryDx=0;entryDy=0;" parent="1" source="7C7tb2xBEg-E1_7drB_p-139" target="8Gsik2gFyO7fR51Xn3zr-80" edge="1">
          <mxGeometry relative="1" as="geometry">
            <mxPoint x="1690" y="1030" as="sourcePoint" />
            <mxPoint x="1810" y="1030" as="targetPoint" />
          </mxGeometry>
        </mxCell>
      </root>
    </mxGraphModel>
  </diagram>
</mxfile>
